<?xml version="1.0" encoding="UTF-8"?>
<svg width="24px" height="24px" viewBox="0 0 24 24" version="1.1" xmlns="http://www.w3.org/2000/svg">
    <g stroke="none" stroke-width="1" fill="none" fill-rule="evenodd">
        <path d="M3,3 L21,3 L21,21 L3,21 L3,3 Z M5,5 L5,19 L19,19 L19,5 L5,5 Z" fill="#212529"/>
        <path d="M7,7 L11,7 L11,9 L7,9 L7,7 Z M13,7 L17,7 L17,9 L13,9 L13,7 Z M7,11 L11,11 L11,13 L7,13 L7,11 Z M13,11 L17,11 L17,13 L13,13 L13,11 Z M7,15 L11,15 L11,17 L7,17 L7,15 Z M13,15 L17,15 L17,17 L13,17 L13,15 Z" fill="#212529"/>
    </g>
</svg>
